<svg width="278" height="390" viewBox="0 0 278 390" fill="none" xmlns="http://www.w3.org/2000/svg">
<path d="M163.213 194.024C173.557 204.867 208.717 239.229 183.711 282.683C158.704 326.136 79.3448 309.041 67.568 241.715C55.7911 174.389 117.153 44.8327 117.153 56.9361C117.153 69.0395 105.049 90.8258 109.756 120.95C114.463 151.074 152.87 183.182 163.213 194.024Z" fill="#3D5AFE"/>
<path d="M276.851 262.779C282.231 307.159 251.971 390 142.357 390C24.6166 390 -38.2589 262.779 25.1496 174.573C25.1496 174.573 79.8967 90.1034 41.9599 174.573C6.93673 252.555 41.9303 339.972 142.357 339.972C222.049 339.972 256.873 255.028 202.538 193.068C178.837 164.045 152.855 135.696 142.357 101.351C119.338 26.0402 198.252 -11.2215 183.711 2.97283C83.8651 100.436 264.617 161.844 276.851 262.779Z" fill="#3D5AFE"/>
</svg>
